<svg width="128" height="107" viewBox="0 0 128 107" fill="none" xmlns="http://www.w3.org/2000/svg">
<g clip-path="url(#clip0_0_1)">
<path d="M34.9 -0.100007C45.2 -0.100007 53.5 0.949994 59.8 3.05C66.1 5.05 70.7 8.05 73.6 12.05C76.5 15.95 77.95 20.8 77.95 26.6C77.95 31.3 77.1 35.3 75.4 38.6C73.7 41.8 71.55 44.35 68.95 46.25C66.45 48.15 63.85 49.45 61.15 50.15V50.9C64.05 51.6 66.95 52.8 69.85 54.5C72.75 56.2 75.15 58.75 77.05 62.15C79.05 65.45 80.05 69.95 80.05 75.65C80.05 82.15 78.4 87.75 75.1 92.45C71.8 97.15 67.1 100.75 61 103.25C54.9 105.75 47.65 107 39.25 107H-2.45V-0.100007H34.9ZM35.2 41C40 41 43.35 40 45.25 38C47.25 36 48.25 33.6 48.25 30.8C48.25 27.9 47.15 25.7 44.95 24.2C42.75 22.6 39.3 21.8 34.6 21.8H26.5V41H35.2ZM26.5 62.15V84.65H36.7C41.7 84.65 45.2 83.6 47.2 81.5C49.2 79.3 50.2 76.55 50.2 73.25C50.2 71.35 49.75 69.55 48.85 67.85C48.05 66.15 46.6 64.8 44.5 63.8C42.5 62.7 39.7 62.15 36.1 62.15H26.5Z" fill="black"/>
<path d="M84.9991 95.285C96.4031 95.3611 107.37 90.9038 115.488 82.8938C123.606 74.8837 128.209 63.977 128.285 52.5729C128.361 41.1688 123.904 30.2016 115.894 22.0839C107.884 13.9663 96.977 9.36303 85.5729 9.28693L85.5219 16.931C94.8986 16.9936 103.866 20.7785 110.453 27.4531C117.039 34.1276 120.704 43.1452 120.641 52.5219C120.578 61.8986 116.793 70.8664 110.119 77.4525C103.444 84.0386 94.4268 87.7035 85.0501 87.6409L84.9991 95.285Z" fill="black"/>
<path d="M83.4001 82.9981C92.2584 83.0062 100.757 79.9077 107.025 74.3841C113.294 68.8605 116.82 61.3644 116.827 53.5448C116.834 45.7252 113.322 38.2227 107.064 32.6877C100.805 27.1526 92.3123 24.0386 83.454 24.0305L83.4476 31.0362C90.201 31.0423 96.6757 33.4165 101.447 37.6363C106.219 41.8561 108.896 47.576 108.891 53.5376C108.885 59.4991 106.197 65.2141 101.418 69.4252C96.639 73.6363 90.16 75.9986 83.4065 75.9924L83.4001 82.9981Z" fill="black"/>
<path d="M83 73.036C85.4951 73.0408 87.9667 72.554 90.2737 71.6036C92.5807 70.6531 94.6779 69.2576 96.4456 67.4966C98.2132 65.7357 99.6168 63.6438 100.576 61.3404C101.535 59.0371 102.031 56.5673 102.036 54.0722C102.041 51.5771 101.554 49.1055 100.604 46.7985C99.6532 44.4915 98.2576 42.3943 96.4967 40.6266C94.7357 38.859 92.6438 37.4554 90.3405 36.4962C88.0371 35.537 85.5673 35.0409 83.0722 35.0361L83.0596 41.6803C84.6822 41.6834 86.2883 42.0061 87.7862 42.6298C89.2841 43.2536 90.6444 44.1663 91.7896 45.3158C92.9347 46.4654 93.8423 47.8292 94.4603 49.3294C95.0784 50.8297 95.395 52.437 95.3919 54.0596C95.3888 55.6822 95.0661 57.2882 94.4424 58.7861C93.8186 60.284 92.9059 61.6444 91.7563 62.7895C90.6068 63.9347 89.243 64.8422 87.7428 65.4603C86.2425 66.0784 84.6352 66.3949 83.0126 66.3918L83 73.036Z" fill="black"/>
</g>
<defs>
<clipPath id="clip0_0_1">
<rect width="128" height="107" fill="white"/>
</clipPath>
</defs>
</svg>
