<svg width="24" height="24" viewBox="0 0 24 24" fill="none" xmlns="http://www.w3.org/2000/svg">
<g clip-path="url(#clip0_54544_27455)">
<path fill-rule="evenodd" clip-rule="evenodd" d="M13.5 -3.05466V-1.38283e-05V23V25.5708L11.7628 23.6757L6.5601 18H6H3H1V16V7.99999V5.99999H3H6H6.85993L11.6936 -0.591377L13.5 -3.05466ZM11.5 20.4292L8 16.611V16V7.99999V7.82736L11.5 3.05463V20.4292ZM6 7.99999H3V16H6V7.99999ZM22 11.5C22 15.2892 21.0475 18.676 19.5561 21.1931L20.7782 23L20.7959 22.9738C22.8477 19.9263 24 15.801 24 11.5C24 7.18665 22.8411 3.04998 20.7782 -1.38283e-05L19.5561 1.80688C21.0475 4.32401 22 7.71078 22 11.5ZM20 11.5C20 14.4199 19.3639 17.1202 18.2854 19.3144L16.9603 17.3552C17.6115 15.6642 18 13.6678 18 11.5C18 9.33211 17.6115 7.33574 16.9603 5.64477L18.2854 3.6856C19.3639 5.87979 20 8.58005 20 11.5ZM14.5933 9.14437L15.9867 7.08419C16.6283 8.57382 17 10.3424 17 12.2392C17 13.7481 16.7648 15.1758 16.3457 16.4465L14.8387 14.2184C14.9431 13.592 15 12.9294 15 12.2392C15 11.1234 14.8513 10.0795 14.5933 9.14437Z" fill="black"/>
</g>
<defs>
<clipPath id="clip0_54544_27455">
<rect width="24" height="24" fill="white"/>
</clipPath>
</defs>
</svg>
